<svg width="112" height="33" viewBox="0 0 112 33" fill="none" xmlns="http://www.w3.org/2000/svg">
<path d="M21.1349 7.5584L26.9998 7.5354C27.144 7.5344 27.2822 7.47336 27.3842 7.36555C27.4863 7.25774 27.5439 7.11188 27.5446 6.95971L27.5384 2.11721C27.5383 2.04162 27.5241 1.96683 27.4966 1.89709C27.4691 1.82735 27.4289 1.76404 27.3781 1.71078C27.3274 1.65752 27.2672 1.61534 27.2009 1.58667C27.1347 1.558 27.0637 1.54339 26.9921 1.54367L3.32634 1.63717C3.25468 1.63741 3.18374 1.65255 3.11758 1.68171C3.05141 1.71087 2.99131 1.75348 2.94071 1.80712C2.8901 1.86075 2.84999 1.92436 2.82267 1.9943C2.79534 2.06424 2.78133 2.13914 2.78145 2.21473L2.7877 7.05534C2.78777 7.13093 2.80197 7.20574 2.82947 7.27547C2.85697 7.34521 2.89723 7.40851 2.94797 7.46178C2.9987 7.51504 3.05892 7.55721 3.12516 7.58588C3.1914 7.61456 3.26237 7.62917 3.33402 7.62888L9.83875 7.60203C9.92553 7.60199 10.011 7.62372 10.0882 7.66543C10.1654 7.70714 10.232 7.76763 10.2825 7.84192C10.3331 7.9162 10.3662 8.00214 10.379 8.09265C10.3919 8.18316 10.3841 8.27564 10.3564 8.36246L7.08167 18.0236C7.05392 18.108 7.04523 18.1981 7.05628 18.2866C7.06734 18.3751 7.09783 18.4596 7.14534 18.5334C7.19285 18.6072 7.25606 18.6682 7.32994 18.7116C7.40382 18.755 7.48632 18.7796 7.57089 18.7834L9.98567 18.8851C10.0722 18.8892 10.1565 18.9149 10.2316 18.9601C10.3068 19.0053 10.3707 19.0687 10.4181 19.145C10.4654 19.2214 10.4949 19.3085 10.5041 19.3994C10.5133 19.4902 10.5019 19.582 10.4709 19.6674L6.84773 29.5089C6.81593 29.595 6.8043 29.6879 6.81382 29.7797C6.82335 29.8715 6.85375 29.9594 6.90243 30.0361C6.95112 30.1127 7.01666 30.1758 7.09347 30.2199C7.17029 30.264 7.25611 30.2879 7.34364 30.2895C7.41961 30.292 7.49523 30.2773 7.56544 30.2463C7.63565 30.2154 7.69881 30.1691 7.75068 30.1103L20.5963 15.678C20.6681 15.597 20.7162 15.496 20.7349 15.387C20.7536 15.2779 20.7421 15.1656 20.7018 15.0634C20.6615 14.9613 20.5941 14.8736 20.5076 14.811C20.4211 14.7484 20.3193 14.7135 20.2144 14.7104L18.012 14.6506C17.9186 14.6483 17.8274 14.6207 17.7472 14.5705C17.667 14.5202 17.6004 14.449 17.554 14.3637C17.5075 14.2783 17.4827 14.1818 17.4819 14.0833C17.4811 13.9847 17.5044 13.8876 17.5495 13.8013L20.6596 7.85805C20.7067 7.76826 20.7755 7.69321 20.859 7.64057C20.9425 7.58793 21.0377 7.55957 21.1349 7.5584Z" fill="white"/>
<path d="M43.1134 29.4371C41.2074 29.4371 39.4893 29.1418 37.959 28.5512C36.4288 27.9338 35.1268 27.0344 34.053 25.8532C32.9792 24.6452 32.147 23.1553 31.5564 21.3834C30.9658 19.5848 30.6705 17.4908 30.6705 15.1016C30.6705 12.7391 30.9658 10.6452 31.5564 8.81968C32.147 6.96734 32.9792 5.42371 34.053 4.18881C35.1268 2.92707 36.4288 1.97405 37.959 1.32975C39.4893 0.685455 41.2074 0.363308 43.1134 0.363308C45.7174 0.363308 47.8651 0.900221 49.5564 1.97405C51.2476 3.02103 52.6033 4.68546 53.6235 6.96734L48.3483 9.70559C47.9725 8.52438 47.3819 7.58478 46.5765 6.8868C45.798 6.16197 44.6436 5.79955 43.1134 5.79955C41.3148 5.79955 39.8651 6.39015 38.7644 7.57136C37.6906 8.72572 37.1537 10.417 37.1537 12.6452V17.1553C37.1537 19.3834 37.6906 21.0881 38.7644 22.2693C39.8651 23.4237 41.3148 24.0009 43.1134 24.0009C44.6168 24.0009 45.8114 23.5982 46.6973 22.7928C47.6101 21.9606 48.2812 20.9673 48.7107 19.813L53.704 22.7123C52.657 24.86 51.2745 26.5244 49.5564 27.7056C47.8651 28.86 45.7174 29.4371 43.1134 29.4371ZM75.3908 28.9539L73.3774 22.2693H63.9948L61.9814 28.9539H55.78L65.0418 0.84653H72.6123L81.7532 28.9539H75.3908ZM68.7465 6.40358H68.5451L65.4445 17.0747H71.8874L68.7465 6.40358ZM86.0446 0.84653H99.6956C102.031 0.84653 103.843 1.50425 105.132 2.81968C106.447 4.13512 107.105 5.88009 107.105 8.05458C107.105 9.12841 106.957 10.0412 106.662 10.7928C106.394 11.5445 106.018 12.162 105.535 12.6452C105.078 13.1284 104.528 13.4908 103.884 13.7324C103.266 13.9472 102.595 14.068 101.87 14.0949V14.3365C102.541 14.3365 103.239 14.4573 103.964 14.6989C104.716 14.9405 105.4 15.3298 106.018 15.8667C106.635 16.3767 107.145 17.0479 107.548 17.8801C107.978 18.7123 108.192 19.7324 108.192 20.9405C108.192 22.0412 108.004 23.0881 107.629 24.0814C107.28 25.0479 106.783 25.8935 106.139 26.6183C105.494 27.3432 104.729 27.9204 103.843 28.3499C102.957 28.7526 101.991 28.9539 100.944 28.9539H86.0446V0.84653ZM92.1654 23.7996H99.2124C100.018 23.7996 100.649 23.5848 101.105 23.1553C101.588 22.6989 101.83 22.068 101.83 21.2626V19.8935C101.83 19.0881 101.588 18.4707 101.105 18.0412C100.649 17.5848 100.018 17.3566 99.2124 17.3566H92.1654V23.7996ZM92.1654 12.3633H98.246C99.0513 12.3633 99.6822 12.1351 100.139 11.6787C100.595 11.2224 100.823 10.5915 100.823 9.78613V8.57807C100.823 7.7727 100.595 7.14183 100.139 6.68546C99.6822 6.22908 99.0513 6.00089 98.246 6.00089H92.1654V12.3633Z" fill="white"/>
</svg>
